<?xml version="1.0" standalone="no"?>
<!DOCTYPE svg PUBLIC "-//W3C//DTD SVG 20010904//EN"
 "http://www.w3.org/TR/2001/REC-SVG-20010904/DTD/svg10.dtd">
<svg version="1.0" xmlns="http://www.w3.org/2000/svg"
 width="64.000000pt" height="64.000000pt" viewBox="0 0 64.000000 64.000000"
 preserveAspectRatio="xMidYMid meet">
<metadata>
Created by potrace 1.16, written by Peter Selinger 2001-2019
</metadata>
<g transform="translate(0.000000,64.000000) scale(0.100000,-0.100000)"
fill="#000000" stroke="none">
<path d="M0 320 l0 -320 320 0 320 0 0 320 0 320 -320 0 -320 0 0 -320z m144
74 l17 -25 20 25 c12 15 31 26 45 26 24 0 24 -2 24 -85 0 -84 0 -85 -25 -85
-23 0 -25 4 -25 47 0 45 0 46 -20 28 -19 -17 -21 -17 -40 0 -20 18 -20 17 -20
-28 0 -40 -3 -47 -20 -47 -18 0 -20 7 -20 85 0 83 1 85 24 85 14 0 30 -10 40
-26z m278 14 c2 -7 2 -48 0 -91 -3 -74 -5 -78 -25 -75 -16 2 -23 11 -25 31 -3
21 -8 27 -29 27 -18 0 -24 -4 -19 -15 3 -8 8 -21 11 -28 3 -6 -4 -18 -15 -25
-18 -11 -22 -9 -31 15 -6 16 -14 47 -16 70 -5 37 -2 46 25 73 25 24 39 30 75
30 27 0 46 -5 49 -12z"/>
</g>
</svg>
